<?xml version="1.0" encoding="UTF-8" standalone="no"?>
<!-- Created with Inkscape (http://www.inkscape.org/) -->

<svg
   width="485.46069mm"
   height="287.67538mm"
   viewBox="0 0 485.46069 287.67538"
   version="1.1"
   id="svg1"
   xml:space="preserve"
   xmlns="http://www.w3.org/2000/svg"
   xmlns:svg="http://www.w3.org/2000/svg"><defs
     id="defs1" /><g
     id="layer1"
     transform="translate(-857.50723,-572.76248)"><rect
       style="fill:#ffffff;fill-opacity:0;stroke:#ffffff;stroke-width:4.45882;stroke-dasharray:none;stroke-opacity:1"
       id="rect2"
       width="481.0018"
       height="68.120361"
       x="859.73663"
       y="754.03021"
       ry="9.3048878" /><path
       style="fill:#cccccc;fill-opacity:1;stroke-width:1.77102;stroke-dasharray:none"
       d="m 872.5314,859.57349 c -0.38211,-0.49333 -1.44769,-4.35181 -2.36797,-8.57441 -0.92028,-4.22259 -1.9038,-7.53496 -2.18559,-7.36079 -0.28179,0.17415 -0.74014,3.49917 -1.01854,7.38892 -0.27841,3.88974 -0.74905,7.46522 -1.04589,7.94551 -0.31969,0.51727 -1.69357,0.78116 -3.37023,0.64732 l -2.83052,-0.22595 1.33807,-11.12227 c 1.64374,-13.66309 2.03801,-14.63709 6.04287,-14.9287 3.77574,-0.27491 4.62016,0.89361 6.38047,8.82939 l 1.27335,5.74053 1.48357,-6.19496 c 1.7325,-7.2343 2.60877,-8.51516 5.82559,-8.51516 4.29773,0 4.63443,0.77168 6.4053,14.68031 1.58466,12.44615 1.68433,11.86965 -2.0522,11.86965 h -3.14476 l -0.47388,-5.56113 c -0.26064,-3.05863 -0.67607,-7.01422 -0.92318,-8.7902 -0.44353,-3.18757 -0.47598,-3.1233 -2.52724,5.00554 -1.14287,4.52902 -2.41943,8.64605 -2.83681,9.14897 -0.96943,1.16808 -3.07404,1.17732 -3.97241,0.0174 z m 52.35558,-0.28903 c -4.51697,-2.22657 -8.04773,-7.86757 -8.06104,-12.87888 -0.006,-2.13497 1.41041,-6.04089 3.03645,-8.37533 3.2993,-4.73667 12.05413,-6.33238 18.25999,-3.32818 1.70325,0.82453 3.09682,1.80631 3.09682,2.18175 0,0.37544 -0.68529,1.6095 -1.52285,2.74237 l -1.52284,2.05975 -2.24438,-1.36856 c -8.26135,-5.03754 -16.63286,4.7627 -9.99062,11.6957 2.6857,2.80326 7.0912,2.81483 9.88882,0.026 l 1.97951,-1.97331 -3.67557,-0.2169 -3.67558,-0.21689 v -2.83276 -2.83277 h 6.81688 6.81689 v 3.25763 c 0,3.4298 -1.79343,7.74653 -4.07591,9.81059 -3.68035,3.32817 -10.79292,4.38604 -15.12657,2.24982 z m 38.40753,-0.0698 c -0.61009,-0.69067 -2.74252,-4.4848 -4.73872,-8.43142 l -3.62949,-7.17566 -0.0367,8.07262 -0.0367,8.07263 h -3.22905 -3.22906 V 847.8658 c 0,-6.82178 0.31653,-12.47844 0.74282,-13.27497 0.98045,-1.83198 5.05455,-1.87228 6.68904,-0.0662 0.65791,0.72697 2.62228,4.1982 4.3653,7.71383 l 3.1691,6.39207 0.0514,-7.71384 0.0514,-7.71384 h 3.27434 3.27435 l -0.22469,12.9436 c -0.18317,10.55189 -0.42358,13.06911 -1.30104,13.62277 -1.68646,1.06416 -3.97859,0.81932 -5.19221,-0.55458 z m 156.23999,-0.0938 c -3.4141,-1.56774 -4.9439,-3.16798 -6.4307,-6.72629 -2.9546,-7.07116 0.4168,-15.92614 7.0156,-18.42632 3.3082,-1.25346 9.5579,-0.92816 12.67,0.65952 3.8231,1.95042 4.0775,2.67063 1.7873,5.061 l -1.9772,2.06387 -1.7858,-1.40461 c -1.9572,-1.53968 -6.5289,-1.88524 -8.8074,-0.66578 -1.9359,1.03601 -3.5481,4.45897 -3.5481,7.53274 0,5.68664 7.1526,8.92097 11.743,5.31011 2.6897,-2.11568 2.356,-2.81819 -1.3383,-2.81819 h -3.2291 v -2.87027 -2.87026 h 6.8169 6.8169 v 1.97331 c -0.011,5.55577 -3.7706,11.62979 -8.3932,13.56125 -3.2153,1.34342 -7.9266,1.18545 -11.3359,-0.38008 z m 30.6683,0.20389 c -4.5518,-2.32228 -8.0477,-7.92501 -8.061,-12.9192 -0.01,-2.13498 1.4104,-6.0409 3.0365,-8.37534 3.9169,-5.6233 14.6215,-6.55796 19.8121,-1.72987 6.3761,5.93077 5.6172,17.14916 -1.4774,21.84422 -3.6255,2.39929 -9.8405,2.95034 -13.3102,1.18019 z m 10.3467,-6.39731 c 2.3725,-1.55445 3.4286,-6.10477 2.1354,-9.19982 -3.3446,-8.0048 -14.089,-5.46118 -14.089,3.3354 0,2.6835 2.1513,5.96424 4.5839,6.99074 1.8788,0.79278 5.2201,0.28212 7.3697,-1.12632 z m 19.9781,6.19342 c -3.414,-1.56774 -4.944,-3.16798 -6.4307,-6.72629 -2.9546,-7.07116 0.4169,-15.92614 7.0156,-18.42632 1.111,-0.42096 3.6659,-0.76536 5.6775,-0.76536 14.2851,0 18.3301,19.97652 5.2484,25.91873 -3.6923,1.67712 -7.8575,1.67684 -11.5108,-7.6e-4 z m 11.3017,-7.27079 c 3.297,-3.61865 2.2401,-10.13877 -1.9532,-12.04939 -4.5584,-2.07689 -9.036,-0.0355 -10.4777,4.77686 -2.3468,7.83316 6.9595,13.2777 12.4309,7.27253 z m 91.8677,7.72337 c -0.3821,-0.49332 -1.4478,-4.3518 -2.368,-8.57441 -0.9203,-4.22259 -1.9038,-7.53495 -2.1855,-7.36079 -0.2818,0.17416 -0.7402,3.49918 -1.0186,7.38892 -0.2784,3.88975 -0.749,7.46523 -1.0459,7.94552 -0.3197,0.51727 -1.6936,0.78115 -3.3702,0.64731 l -2.8305,-0.22594 1.338,-11.12227 c 1.6438,-13.6631 2.038,-14.6371 6.0429,-14.9287 3.7757,-0.27492 4.6201,0.89361 6.3804,8.82938 l 1.2734,5.74054 1.4835,-6.19496 c 1.7326,-7.2343 2.6088,-8.51515 5.8257,-8.51515 4.2976,0 4.6344,0.77167 6.4052,14.6803 1.5847,12.44615 1.6843,11.86965 -2.0521,11.86965 h -3.1448 l -0.4739,-5.56114 c -0.2606,-3.05863 -0.6761,-7.01421 -0.9232,-8.79019 -0.4435,-3.18758 -0.476,-3.1233 -2.5272,5.00554 -1.1428,4.52902 -2.4194,8.64606 -2.8368,9.14897 -0.9694,1.16808 -3.0741,1.17731 -3.9724,0.0174 z M 893.85982,849.6713 c 0,-11.21395 0.63475,-13.49389 4.28191,-15.37991 3.43791,-1.77781 8.84512,-1.42223 11.4285,0.75154 2.95056,2.48274 3.65515,5.54758 3.65987,15.91974 l 0.005,8.79018 h -3.22906 -3.22905 v -4.66417 -4.66419 h -2.87025 -2.87027 v -2.87027 -2.87026 h 2.87027 c 2.51987,0 2.87025,-0.20225 2.87025,-1.65676 0,-2.66143 -1.58381,-4.23885 -3.98199,-3.96594 l -2.11732,0.24095 -0.19909,10.22532 -0.19909,10.22532 h -3.20934 -3.20935 z m 81.08499,-3.19342 V 833.2029 h 3.22905 3.22905 v 13.27498 13.27497 h -3.22905 -3.22905 z m 10.76749,4.126 c 0.002,-5.03193 0.34494,-10.37666 0.76161,-11.87717 1.0401,-3.74551 4.07638,-5.51763 9.45973,-5.52112 l 4.12596,-0.003 v 2.87028 2.87026 h -3.08546 c -3.59353,0 -4.80776,0.94235 -4.80776,3.73134 0,1.957 0.10251,2.00919 3.94657,2.00919 h 3.94665 v 2.87026 2.87026 h -3.94665 -3.94657 v 4.66419 4.66418 h -3.22903 -3.22904 z m 24.3934,4.51004 c 0,-4.08739 -0.192,-4.73724 -1.6146,-5.46574 -3.3898,-1.73591 -4.0931,-3.48257 -4.1101,-10.20783 l -0.016,-6.31997 3.0496,0.22065 3.0497,0.22065 0.3588,5.38175 c 0.3338,5.00585 0.4784,5.39866 2.0715,5.62392 2.3703,0.33515 2.9277,-0.90869 2.9404,-6.56214 l 0.01,-4.88483 3.0498,0.22065 3.0496,0.22065 0.2145,4.09876 c 0.2956,5.65437 -0.8839,9.54995 -3.4708,11.46257 -1.965,1.4528 -2.1254,1.91311 -2.1254,6.10061 v 4.52923 h -3.2291 -3.229 z m 31.5728,-5.76578 v -10.40471 h -2.5115 c -2.4517,0 -2.5115,-0.0683 -2.5115,-2.87026 v -2.87027 h 8.6108 8.6108 v 2.87027 2.87026 h -2.8702 -2.8703 v 10.40471 10.40471 h -3.229 -3.2291 z m 15.0689,-2.87026 V 833.2029 h 3.2291 3.229 v 4.66418 4.66418 h 3.2291 3.229 v -4.66418 -4.66418 h 2.8703 2.8702 v 13.27498 13.27497 h -2.8702 -2.8703 v -5.74053 -5.74052 h -3.229 -3.2291 v 5.74052 5.74053 h -3.229 -3.2291 z m 29.5272,12.05764 c -6.7576,-3.32957 -8.6186,-14.24594 -3.531,-20.71376 1.9976,-2.5396 6.6245,-4.58349 10.4202,-4.60309 l 3.0497,-0.0157 v 2.77694 c 0,2.76452 -0.015,2.77859 -3.2738,3.14594 -3.0401,0.34267 -6.7721,2.68375 -6.7721,4.24812 0,0.32588 2.2604,0.59249 5.023,0.59249 h 5.0229 v 2.83884 2.83882 l -5.2023,0.21083 -5.2025,0.21083 1.9407,1.97331 c 1.5526,1.57863 2.5931,1.9733 5.2025,1.9733 h 3.2616 v 2.87027 2.87026 l -3.7672,-0.0164 c -2.072,-0.009 -4.8493,-0.54944 -6.1717,-1.20099 z m 118.2916,-12.05762 v -13.27498 h 5.4047 c 10.5193,0 16.1221,4.75282 16.1221,13.67613 0,7.12013 -4.2123,12.08221 -10.7937,12.71458 l -3.5575,0.34184 v -2.96156 c 0,-2.65562 0.1796,-2.96156 1.7388,-2.96156 2.5154,0 6.0248,-3.24326 6.5522,-6.0554 0.8477,-4.51793 -3.2761,-9.01349 -8.268,-9.01349 -1.3988,0 -1.4582,0.42356 -1.4582,10.4047 v 10.40472 h -2.8702 -2.8702 z m 40.9012,2.87026 v -10.4047 h -2.5115 c -2.4517,0 -2.5115,-0.0683 -2.5115,-2.87026 v -2.87028 h 8.6108 8.6108 v 2.87028 2.87026 h -2.8702 -2.8703 v 10.4047 10.40472 h -3.229 -3.2291 z m 15.0688,-2.87026 v -13.27498 h 3.2292 3.2289 v 13.27498 13.27498 h -3.2289 -3.2292 z m 49.4106,11.72683 c -6.0342,-3.49905 -8.0199,-13.08123 -3.977,-19.19062 2.3643,-3.57265 6.5673,-5.77213 11.0747,-5.79542 l 3.0498,-0.0157 v 2.77695 2.77694 l -3.3848,0.38152 c -2.5501,0.28743 -3.8192,0.88555 -5.1466,2.42541 l -1.7618,2.04389 5.1466,0.21083 5.1466,0.21083 v 2.8074 2.80739 l -5.2023,0.21082 -5.2025,0.21084 1.9407,1.97331 c 1.5526,1.57863 2.5931,1.9733 5.2024,1.9733 h 3.2617 v 2.87026 2.87027 l -3.7672,-0.0165 c -2.506,-0.011 -4.642,-0.52374 -6.3803,-1.53166 z m 14.4529,-1.32211 v -2.87027 h 4.6219 c 5.4718,0 6.6409,-1.04161 3.5794,-3.18944 -1.1561,-0.8111 -3.4743,-2.8046 -5.1517,-4.42998 -2.6366,-2.55497 -3.0496,-3.36426 -3.0496,-5.97512 0,-2.38101 0.4438,-3.46362 2.0975,-5.11738 1.972,-1.97204 2.4442,-2.09751 7.8932,-2.09751 h 5.7957 v 2.87028 2.87026 h -4.6641 c -3.9696,0 -4.6619,0.187 -4.6487,1.25574 0.01,0.69468 1.8122,2.53816 4.0369,4.126 4.7358,3.38005 6.3914,6.26437 5.7028,9.93501 -0.7925,4.2251 -3.1489,5.49267 -10.2107,5.49267 h -6.0026 z"
       id="path1-3" /><path
       style="fill:#ffffff;fill-opacity:1;stroke-width:2;stroke-dasharray:none"
       d="m 857.98895,733.18147 c 0,-2.74307 0.30915,-3.64654 1.2478,-3.64654 2.53392,0 7.67556,-3.33591 9.06739,-5.88295 1.33076,-2.43523 1.45286,-7.09256 1.68356,-64.21183 0.1368,-33.87239 0.016,-63.52806 -0.2685,-65.90148 -0.62286,-5.19599 -3.31793,-8.60503 -8.0837,-10.22516 -3.08831,-1.04988 -3.25304,-1.27788 -3.48836,-4.82813 l -0.24699,-3.72621 h 38.94095 38.9409 v 3.66661 c 0,3.14104 -0.2833,3.77432 -1.9766,4.4181 -2.8898,1.09871 -3.7866,3.2684 -2.8112,6.80116 0.7113,2.57615 11.4736,28.04481 12.6665,29.97503 0.3887,0.62885 10.8931,-26.89216 12.1003,-31.7021 0.5549,-2.21091 -1.6382,-5.05536 -3.8977,-5.05536 -1.2539,0 -1.4951,-0.65368 -1.4951,-4.05172 v -4.05172 h 36.8707 36.8706 v 3.61531 c 0,3.52097 -0.083,3.63768 -3.1822,4.4722 -3.3271,0.8959 -7.0323,4.50161 -7.7829,7.57407 -0.2367,0.96845 -0.3277,31.18011 -0.2024,67.13702 0.2255,64.6895 0.2455,65.40022 1.9079,67.66374 1.0099,1.37525 3.1897,2.77232 5.4655,3.50307 3.7216,1.19495 3.7857,1.27378 3.7899,4.65948 v 3.44396 h -32.819 -32.8189 v -3.64655 c 0,-2.81547 0.298,-3.64654 1.3078,-3.64654 0.7192,0 2.7116,-0.78904 4.4275,-1.75341 5.9189,-3.32661 5.6437,0.18758 5.412,-69.1119 l -0.2077,-62.09048 -18.9419,49.66325 c -10.418,27.31479 -19.1901,49.93893 -19.4936,50.27587 -0.3035,0.33695 -9.4654,-21.68696 -20.3598,-48.94202 l -19.8081,-49.55464 -0.2309,59.88166 c -0.127,32.93492 -0.021,61.05607 0.2349,62.49144 0.6845,3.83608 3.8979,7.17676 8.0952,8.41608 3.5913,1.06038 3.6508,1.13458 3.6508,4.5476 v 3.46964 h -22.2844 -22.2845 z m 181.07005,0.088 c 0,-3.37715 0.1603,-3.62272 3.1453,-4.81705 4.5435,-1.81796 7.6148,-6.07747 10.4971,-14.55824 2.6888,-7.91112 36.0152,-120.71968 36.9603,-125.10903 0.65,-3.01867 -0.4871,-5.59602 -2.7915,-6.32743 -1.3006,-0.41278 -1.6216,-1.22571 -1.6216,-4.1066 v -3.59194 h 32.819 32.819 v 3.56728 c 0,3.23508 -0.2264,3.64619 -2.4311,4.41474 -2.1007,0.73231 -2.431,1.24826 -2.431,3.79724 0,3.42854 33.5732,134.08158 35.3244,137.46807 1.3313,2.57439 3.7526,4.35384 7.0161,5.15622 2.0096,0.49409 2.2284,0.89744 2.2284,4.1066 v 3.5587 h -32.4137 -32.4138 v -3.60983 c 0,-3.4908 0.094,-3.62755 2.8648,-4.14727 4.4364,-0.83228 5.5334,-3.71951 5.0397,-13.26411 -0.4548,-8.79017 -2.1448,-14.02785 -6.7782,-21.00627 -7.9597,-11.98803 -23.4531,-21.72017 -35.9712,-22.59529 l -5.2672,-0.36822 -5.4994,20.67265 c -6.1253,23.02515 -6.8844,27.38221 -5.5016,31.57233 0.9387,2.84416 4.6127,5.45292 7.6795,5.45292 0.9953,0 1.2956,0.84518 1.2956,3.64654 v 3.64655 h -22.2845 -22.2844 z m 76.1531,-95.50602 c -4.3221,-17.04762 -8.3736,-32.80686 -9.0036,-35.02046 l -1.1455,-4.02479 -7.4762,28.36791 c -4.1119,15.60235 -7.4762,28.62664 -7.4762,28.94287 0,0.31624 0.8423,0.57497 1.8716,0.57497 6.2406,0 22.1813,5.6729 28.1113,10.00413 1.5599,1.13936 2.8678,2.08944 2.9065,2.1113 0.039,0.0219 -3.4659,-13.90832 -7.7879,-30.95593 z m 141.8715,97.89088 c -33.5836,-5.24958 -57.0695,-28.33437 -65.1723,-64.05902 -1.5005,-6.61565 -2.2911,-22.01228 -1.5574,-30.32886 2.1356,-24.20651 16.2874,-46.13394 37.3913,-57.93594 21.4398,-11.98979 41.5478,-13.63158 69.4154,-5.66767 9.4248,2.6934 11.4996,2.57812 15.2939,-0.84981 l 3.1083,-2.80821 2.2113,25.70043 c 1.2161,14.13524 2.2798,26.61207 2.3638,27.7263 0.1126,1.49558 -0.2882,2.08885 -1.5311,2.2665 -1.3578,0.19409 -1.8837,-0.43303 -2.718,-3.24138 -4.5754,-15.40122 -17.3231,-29.30028 -29.9212,-32.6236 -15.2441,-4.02131 -26.996,-1.25854 -36.9384,8.68386 -2.8087,2.80873 -6.0302,6.92899 -7.1588,9.15614 -11.9855,23.65224 -8.0846,69.94976 7.7652,92.16125 7.66,10.7346 15.5556,15.5713 25.419,15.5713 6.5717,0 9.1659,-1.33087 12.0117,-6.16229 1.5126,-2.56798 1.6383,-4.47603 1.8845,-28.6078 0.2306,-22.58981 0.093,-26.30259 -1.0852,-29.38892 -1.4367,-3.76197 -5.045,-7.07425 -8.7001,-7.98638 -2.0084,-0.50118 -2.2285,-0.90764 -2.2285,-4.11482 v -3.5587 h 32.4138 32.4138 v 3.54526 c 0,3.26076 -0.1879,3.58283 -2.3415,4.01355 -3.5011,0.70022 -6.5599,3.77011 -7.4058,7.43256 -0.4117,1.78276 -0.7573,16.57626 -0.7679,32.87445 -0.016,24.21719 0.2062,30.39233 1.2144,33.78735 1.3337,4.49112 3.8282,7.04387 7.7181,7.89823 2.2103,0.48546 2.393,0.79911 2.393,4.10775 v 3.58216 l -39.5043,-0.0802 c -27.2428,-0.0553 -41.5164,-0.3947 -45.987,-1.09352 z"
       id="path1-1" /><path
       style="fill:#ffffff;fill-opacity:1;stroke-width:2.08404;stroke-dasharray:none"
       d="m 1049.8162,806.68832 c -12.7872,-0.43632 -13.2599,-0.51466 -11.6104,-1.92427 1.6084,-1.37442 1.7196,-2.42528 1.7196,-16.2546 0,-13.85647 -0.1107,-14.89569 -1.7592,-16.54436 -0.9675,-0.96753 -1.6182,-1.90003 -1.4461,-2.07221 0.1722,-0.17219 6.3785,-0.3693 13.7918,-0.43804 l 13.4788,-0.12497 0.9744,4.09708 c 0.5359,2.25337 1.0066,5.04703 1.0461,6.20807 0.07,2.05154 0.01,2.03072 -2.1739,-0.73902 -2.6478,-3.3606 -7.9297,-5.97159 -12.1326,-5.99759 -3.6081,-0.0223 -5.0242,1.20998 -5.0242,4.37231 0,2.27061 0.1654,2.3643 4.1741,2.3643 3.279,0 4.4396,-0.37906 5.4123,-1.76779 1.1718,-1.67303 1.2893,-1.50331 2.1922,3.16649 0.5246,2.71385 1.1361,5.78921 1.3588,6.83415 0.4872,2.28494 -0.991,2.56489 -1.7027,0.32246 -0.8251,-2.59953 -3.1831,-4.09367 -7.4238,-4.70397 l -4.0109,-0.57724 v 9.17121 c 0,6.0073 0.3496,9.52078 1.0133,10.18449 1.3628,1.3628 8.5206,1.28613 11.9041,-0.12754 2.647,-1.10605 7.58,-5.96581 8.4014,-8.27682 0.2224,-0.62552 0.6855,-0.87643 1.0293,-0.55757 0.9259,0.85888 -3.7431,14.22738 -4.8963,14.01874 -0.5423,-0.0982 -6.9846,-0.38313 -14.3161,-0.63331 z m 72.2918,0.18628 c -12.361,-0.24197 -13.3053,-0.3685 -11.6104,-1.55565 1.7798,-1.24666 1.8449,-1.82397 1.8449,-16.37441 0,-15.72198 -0.252,-17.75346 -2.2014,-17.75346 -0.6468,0 -1.1762,-0.36226 -1.1762,-0.80502 0,-0.46769 5.828,-0.90998 13.9089,-1.0555 l 13.9091,-0.25048 0.9011,4.20731 c 0.4958,2.31398 1.1174,5.06886 1.3816,6.12186 0.6862,2.73359 -0.712,2.35558 -2.4258,-0.65586 -2.3588,-4.14486 -10.8287,-7.10064 -15.3622,-5.36098 -0.8548,0.32802 -1.3355,1.54397 -1.3355,3.37757 v 2.86504 h 4.301 c 3.5908,0 4.3739,-0.27883 4.7426,-1.68879 0.8139,-3.11231 1.5963,-1.73535 2.6806,4.71751 1.1985,7.13308 0.8745,8.52319 -1.0978,4.70914 -1.3661,-2.64183 -2.1107,-3.03874 -7.4877,-3.99223 l -3.194,-0.56637 0.2386,10.0208 0.2387,10.02082 4.9172,0.25508 c 4.0339,0.20926 5.5754,-0.13067 8.5816,-1.89242 2.0155,-1.18114 4.4883,-3.4808 5.4956,-5.11037 1.007,-1.62957 2.1801,-2.96284 2.6067,-2.96284 1.0653,0 0.9817,0.39636 -1.5997,7.59191 -1.4302,3.98687 -2.7372,6.33928 -3.5356,6.36304 -0.6966,0.0207 -7.3215,-0.0809 -14.7219,-0.2257 z m 151.4111,0 c -12.3611,-0.24197 -13.3053,-0.3685 -11.6105,-1.55565 1.7799,-1.24666 1.845,-1.82397 1.845,-16.37441 0,-15.72198 -0.2519,-17.75346 -2.2014,-17.75346 -0.6469,0 -1.1762,-0.36226 -1.1762,-0.80502 0,-0.46769 5.8281,-0.90998 13.909,-1.0555 l 13.909,-0.25048 0.9012,4.20731 c 0.4956,2.31397 1.1173,5.06886 1.3816,6.12186 0.686,2.73359 -0.7121,2.35558 -2.4258,-0.65586 -2.3588,-4.14486 -10.8287,-7.10064 -15.3622,-5.36098 -0.8548,0.32802 -1.3358,1.54397 -1.3358,3.37757 v 2.86504 h 4.3011 c 3.591,0 4.3741,-0.27883 4.7426,-1.68879 0.814,-3.11231 1.5964,-1.73535 2.6808,4.71751 1.1985,7.13308 0.8744,8.52319 -1.0978,4.70914 -1.3664,-2.64183 -2.1107,-3.03879 -7.4877,-3.99223 l -3.1941,-0.56637 0.2387,10.0208 0.2387,10.02082 4.9173,0.25508 c 4.0338,0.20926 5.5752,-0.13067 8.5815,-1.89242 2.0153,-1.18114 4.4884,-3.4808 5.4954,-5.11037 1.0072,-1.62957 2.1802,-2.96284 2.6067,-2.96284 1.0653,0 0.9819,0.39636 -1.5994,7.59191 -1.4303,3.98687 -2.7375,6.33928 -3.5358,6.36304 -0.6966,0.0207 -7.3215,-0.0809 -14.7219,-0.2257 z m 32.4543,-0.26783 c -1.6255,-0.39626 -3.5546,-0.5426 -4.287,-0.32523 -1.0603,0.31467 -1.6316,-1.00033 -2.8031,-6.45241 -0.8093,-3.76618 -1.3014,-7.01791 -1.0931,-7.22604 0.2081,-0.20813 1.3712,1.31557 2.5845,3.38601 2.7924,4.76492 7.0031,7.42452 11.8711,7.49811 6.4347,0.0972 10.6154,-2.84262 10.6154,-7.46459 0,-2.56548 -4.0604,-5.25898 -11.2195,-7.44266 -9.4921,-2.89527 -12.4235,-5.30711 -12.4235,-10.22164 0,-2.95095 0.4969,-4.15674 2.566,-6.22581 3.0784,-3.07831 6.7746,-3.90504 13.2771,-2.96964 2.6646,0.38329 5.4867,0.62499 6.2713,0.53713 1.4671,-0.16428 1.85,0.61848 2.7953,5.71304 0.3015,1.62547 0.7355,3.62035 0.9643,4.43309 0.6627,2.35325 -0.8305,1.70226 -2.3926,-1.04322 -3.0805,-5.41367 -12.8565,-8.04367 -16.1936,-4.35637 -2.7106,2.99524 -1.2217,4.24537 8.7556,7.35168 11.2836,3.51294 13.8986,6.25375 13.3396,13.98147 -0.4006,5.53863 -2.4439,8.54009 -7.1905,10.56261 -2.9726,1.26664 -10.7777,1.40035 -15.4373,0.26447 z m -304.0327,-1.26557 c 1.8201,-1.27491 1.8766,-1.76837 1.8766,-16.39666 0,-15.72198 -0.2518,-17.75346 -2.2013,-17.75346 -0.6469,0 -1.1762,-0.37999 -1.1762,-0.84441 0,-1.23339 24.6845,-1.1031 27.4233,0.14477 4.4556,2.03013 3.5046,7.68274 -1.7706,10.52371 l -2.8555,1.53784 2.8291,1.45145 c 1.556,0.79831 4.0263,2.81481 5.4892,4.48116 3.5106,3.99827 3.7709,9.96532 0.5992,13.73467 -2.9684,3.52777 -7.1409,4.43541 -20.3902,4.43541 -10.8305,0 -11.5607,-0.0977 -9.8236,-1.31448 z m 23.0978,-5.29002 c 1.4599,-1.63386 2.4218,-3.66183 2.4218,-5.10549 0,-2.87803 -2.9532,-7.38075 -6.0401,-9.2092 -2.0526,-1.21584 -2.5655,-1.20285 -6.1218,0.15538 l -3.8815,1.48239 v 8.05027 8.05029 l 5.5999,-0.35656 c 5.0246,-0.31993 5.8488,-0.63503 8.0217,-3.06708 z m -8.0221,-18.39426 c 8.5457,-4.04275 7.9811,-9.12698 -0.9554,-8.6026 l -4.2218,0.24774 -0.2516,5.27747 c -0.1384,2.90259 -0.02,5.27746 0.2634,5.27746 0.2832,0 2.6076,-0.99003 5.1654,-2.20007 z m 65.1618,23.52106 c 0.7197,-1.16267 -0.1509,-4.54272 -4.0844,-15.8553 -5.3378,-15.35171 -6.5371,-18.1316 -7.8228,-18.1316 -0.4481,0 -0.8147,-0.37999 -0.8147,-0.84441 0,-0.48787 2.674,-0.84439 6.333,-0.84439 3.6591,0 6.3328,0.35652 6.3328,0.84439 0,0.46442 -0.3798,0.84441 -0.8442,0.84441 -1.61,0 -0.8246,3.90379 3.2201,16.00487 l 4.0647,12.16078 4.3794,-12.18635 c 2.4087,-6.70248 4.3794,-12.90286 4.3794,-13.77864 0,-0.87575 -0.665,-2.09707 -1.4777,-2.71402 -1.2759,-0.96848 -0.699,-1.1254 4.222,-1.14858 3.1348,-0.0148 5.6997,0.19721 5.6997,0.47109 0,0.27387 -0.7243,1.12882 -1.6097,1.89989 -1.515,1.3195 -12.7452,30.03167 -12.7452,32.58551 0,0.65171 0.4751,1.37657 1.0556,1.61081 0.5805,0.23425 -1.7026,0.45591 -5.0737,0.49257 -5.6309,0.0612 -6.0546,-0.0534 -5.2143,-1.41103 z m 64.4186,0.16322 c 1.8201,-1.27491 1.8766,-1.76837 1.8766,-16.39666 0,-15.72198 -0.2518,-17.75346 -2.2013,-17.75346 -0.6469,0 -1.1763,-0.37999 -1.1763,-0.84441 0,-0.52556 4.8034,-0.84439 12.7215,-0.84439 15.4723,0 17.6579,0.78442 17.645,6.33296 -0.01,2.82786 -1.7783,5.39735 -5.2249,7.57752 l -2.3015,1.45568 1.9997,2.66076 c 1.0996,1.46342 3.754,6.17555 5.8984,10.47142 2.1444,4.29587 4.4062,7.81066 5.0263,7.81066 0.6199,0 1.7977,-0.74085 2.6172,-1.64635 2.223,-2.4565 13.1571,-31.54674 12.2192,-32.50944 -1.6734,-1.7176 -0.5503,-2.15321 5.5513,-2.15321 6.1427,0 7.2448,0.43942 5.4935,2.19065 -1.0165,1.0165 8.4807,29.12296 11.0293,32.64066 l 1.6824,2.32209 -6.9915,-0.0269 c -5.9955,-0.0231 -6.7811,-0.18668 -5.5139,-1.14859 4.71,-3.57545 -1.7642,-13.28567 -9.7189,-14.57653 -2.9449,-0.4779 -2.9782,-0.4481 -4.7261,4.22336 -2.9514,7.88836 -3.0145,8.64723 -0.845,10.16677 1.826,1.27902 1.1819,1.36184 -10.5906,1.36184 -11.162,0 -12.4175,-0.14168 -11.4616,-1.29338 1.49,-1.7954 0.01,-6.42998 -4.0002,-12.51776 -3.2844,-4.98755 -3.8378,-5.28365 -7.3665,-3.94207 -2.0897,0.79449 -2.1659,1.07537 -2.1659,7.97388 0,6.43178 0.1886,7.28249 1.8766,8.46486 1.7584,1.2316 1.4006,1.31447 -5.6764,1.31447 -7.077,0 -7.4348,-0.0828 -5.6764,-1.31447 z m 55.9885,-21.8536 c -1.2191,-3.45409 -2.4428,-6.50629 -2.7192,-6.78266 -0.2765,-0.27637 -1.3644,1.80213 -2.4177,4.61887 -1.0534,2.81674 -1.7694,5.21323 -1.5911,5.32551 0.4054,0.2551 7.74,2.87861 8.4343,3.01684 0.2807,0.0558 -0.4872,-2.72447 -1.7063,-6.17856 z m -42.0521,0.91956 c 3.8625,-1.61865 8.2058,-5.49299 8.2058,-7.32007 0,-2.62171 -2.3834,-4.20722 -6.3243,-4.20722 -6.0712,0 -6.3417,0.29206 -6.3417,6.8455 0,6.26317 0.1959,6.46875 4.4602,4.68179 z m 71.2454,21.22972 c -6.6037,-2.30835 -11.7233,-8.88518 -12.6984,-16.31273 -0.7518,-5.72727 0.7447,-10.75941 4.4042,-14.81011 4.0445,-4.47667 9.2772,-5.99319 18.861,-5.46615 l 7.1654,0.39405 0.982,4.88543 c 0.5401,2.687 0.7941,5.07474 0.5644,5.3061 -0.2295,0.23137 -1.1858,-0.63423 -2.125,-1.92352 -2.3505,-3.22664 -5.8024,-4.83008 -10.3985,-4.83008 -5.3626,0 -8.6739,1.92932 -10.6028,6.17785 -3.7322,8.22085 -0.112,18.88706 7.8166,23.02917 2.7859,1.45541 9.2534,1.56356 10.6391,0.17793 0.6498,-0.64969 1.0132,-3.97074 1.0132,-9.25546 0,-7.3915 -0.1907,-8.41981 -1.8479,-9.96385 l -1.848,-1.7217 7.1254,0.0269 c 6.5423,0.0247 6.9872,0.13129 5.4366,1.30294 -1.5245,1.15202 -1.6887,2.26438 -1.6887,11.44055 0,9.08715 0.1738,10.2915 1.6391,11.36298 1.443,1.05516 0.2309,1.19056 -10.1328,1.13187 -6.4744,-0.0367 -12.9118,-0.46514 -14.3049,-0.95213 z"
       id="path1-8" /><rect
       style="fill:#ffffff;fill-opacity:1;stroke:#000000;stroke-width:0;stroke-dasharray:none;stroke-opacity:1"
       id="rect3"
       width="36.847645"
       height="53.612446"
       x="867.57007"
       y="-814.89661"
       ry="5.0108218"
       transform="scale(1,-1)" /><rect
       style="fill:#cccccc;fill-opacity:1;stroke:#000000;stroke-width:0;stroke-dasharray:none;stroke-opacity:1"
       id="rect3-4"
       width="36.847645"
       height="53.612446"
       x="910.60767"
       y="-814.89661"
       ry="5.0108218"
       transform="scale(1,-1)" /><rect
       style="fill:#666666;fill-opacity:1;stroke:#000000;stroke-width:0;stroke-dasharray:none;stroke-opacity:1"
       id="rect3-1"
       width="36.847645"
       height="53.612446"
       x="953.64526"
       y="-814.89661"
       ry="5.0108218"
       transform="scale(1,-1)" /></g></svg>
